<svg height="512" viewBox="0 0 512 512" width="512" xmlns="http://www.w3.org/2000/svg"><g id="Fill_out_line" data-name="Fill out line"><path d="m88 24h208v256h-208z" fill="#fc7"/><path d="m296 24h144v256h-144z" fill="#fcb73f"/><path d="m168 24h48v48h-48z" fill="#fcb73f"/><circle cx="192" cy="176" fill="#42c25e" r="72"/><path d="m80 328h32v136h-32z" fill="#65dcff"/><path d="m16 312h64v176h-64z" fill="#3ea7ff"/><path d="m486.63 328a22.55638 22.55638 0 0 1 -6.63 16l-87.43 87.42993a193.13217 193.13217 0 0 1 -273.14 0l-7.43-7.42993h164.35a144.14228 144.14228 0 0 0 101.83-42.17993l69.82-69.82007a22.63 22.63 0 0 1 38.63 16z" fill="#ffc7cc"/><path d="m112 351.99994a56.56845 56.56845 0 0 1 79.99986 0l16.00014 16.00006h100a28 28 0 0 1 28 28 28 28 0 0 1 -28 28h-195.9997z" fill="#ffc7cc"/><path d="m88 288h352a8.00008 8.00008 0 0 0 8-8v-256a8.00008 8.00008 0 0 0 -8-8h-352a8.00008 8.00008 0 0 0 -8 8v256a8.00008 8.00008 0 0 0 8 8zm344-16h-128v-240h128zm-224-240v32h-32v-32zm-112 0h64v40a8.00008 8.00008 0 0 0 8 8h48a8.00008 8.00008 0 0 0 8-8v-40h64v240h-192z"/><path d="m176 188.68652-18.34326-18.34375-11.31348 11.31446 24 24a8.00063 8.00063 0 0 0 11.31348 0l48-48-11.31348-11.31446z"/><path d="m400 240h16v16h-16z"/><path d="m368 240h16v16h-16z"/><path d="m336 240h16v16h-16z"/><path d="m192 96a80 80 0 1 0 80 80 80.09041 80.09041 0 0 0 -80-80zm0 144a64 64 0 1 1 64-64 64.07239 64.07239 0 0 1 -64 64z"/><path d="m485.65723 306.34375a30.62622 30.62622 0 0 0 -43.314-.001l-69.82323 69.82325a135.3368 135.3368 0 0 1 -28.58 21.854c.03717-.66895.05994-1.3418.05994-2.02a36.04061 36.04061 0 0 0 -36-36h-96.68646l-13.65674-13.65723a64.595 64.595 0 0 0 -77.65674-10.4353v-7.90747a8.00008 8.00008 0 0 0 -8-8h-24v-8a8.00008 8.00008 0 0 0 -8-8h-64v16h56v160h-56v16h64a8.00008 8.00008 0 0 0 8-8v-16h24a8.00008 8.00008 0 0 0 8-8v-20.96a201.12553 201.12553 0 0 0 278.2251-5.95117l87.43213-87.43262a30.662 30.662 0 0 0 0-43.31246zm-381.65723 149.65625h-16v-120h16zm370.34326-117.65723-87.43164 87.43164a185.13634 185.13634 0 0 1 -261.82275 0l-5.08887-5.08886v-65.208a48.546 48.546 0 0 1 66.34326 2.17969l16 16a8.00035 8.00035 0 0 0 5.65674 2.34276h100a20 20 0 0 1 0 40h-100v16h100a35.90213 35.90213 0 0 0 26.36035-11.51709 151.07142 151.07142 0 0 0 49.47315-33.00244l69.82373-69.82422a14.62741 14.62741 0 0 1 20.686 20.68652z"/></g></svg>